<svg width="256" height="256" viewBox="0 0 256 256" fill="none" xmlns="http://www.w3.org/2000/svg">
  <!-- Roller body -->
  <rect x="36" y="40" width="152" height="56" rx="12" stroke="#FFFFFF" stroke-width="10"/>

  <!-- Fresh paint on roller -->
  <path d="M44 64h120c8 0 14 6 14 14v2c-6 6-14 10-22 10H66c-12 0-22-6-28-16v-2c0-4 3-8 6-8z" fill="#D4A017" opacity="0.9"/>
  <path d="M100 116c0 10-8 18-18 18" stroke="#D4A017" stroke-width="8" stroke-linecap="round"/>

  <!-- Bracket to handle -->
  <path d="M188 68h18c10 0 18 8 18 18v18" stroke="#FFFFFF" stroke-width="10" stroke-linecap="round" stroke-linejoin="round"/>

  <!-- Handle -->
  <path d="M224 136v28c0 12-10 22-22 22h-6c-8 0-14 6-14 14v6" stroke="#FFFFFF" stroke-width="10" stroke-linecap="round" stroke-linejoin="round"/>
  <rect x="168" y="206" width="18" height="28" rx="9" fill="#FFFFFF"/>

  <!-- Subtle shine -->
  <path d="M48 48h40" stroke="#FFFFFF" stroke-opacity="0.5" stroke-width="6" stroke-linecap="round"/>
</svg>
